<svg id="a645a698-74f4-404b-bfdf-ef0f61bb9df4" data-name="Camada 1" xmlns="http://www.w3.org/2000/svg" viewBox="0 0 32 32">
  <path d="M23.08,20.24,18.83,16l4.24-4.23a1.47,1.47,0,0,0,.44-1.06,1.46,1.46,0,0,0-.44-1.06l-.7-.71a1.54,1.54,0,0,0-2.13,0L16,13.17,11.76,8.93a1.49,1.49,0,0,0-2.12,0l-.7.7a1.49,1.49,0,0,0,0,2.12L13.18,16,8.92,20.25a1.5,1.5,0,0,0,0,2.12l.71.7a1.46,1.46,0,0,0,1.06.44h0a1.47,1.47,0,0,0,1.06-.44L16,18.82l4.25,4.25a1.51,1.51,0,0,0,2.12,0l.71-.71A1.51,1.51,0,0,0,23.08,20.24Z" fill="#bebec8"/>
</svg>
